<mxfile host="app.diagrams.net" modified="2023-07-29T17:58:07.813Z" agent="Mozilla/5.0 (Windows NT 10.0; Win64; x64) AppleWebKit/537.36 (KHTML, like Gecko) Chrome/115.0.0.0 Safari/537.36" etag="Qmoff1_g6e3DryO5J_bb" version="21.3.7" type="device">
  <diagram id="R2lEEEUBdFMjLlhIrx00" name="Page-1">
    <mxGraphModel dx="1434" dy="808" grid="0" gridSize="10" guides="1" tooltips="1" connect="1" arrows="1" fold="1" page="1" pageScale="1" pageWidth="1169" pageHeight="827" math="0" shadow="0" extFonts="Permanent Marker^https://fonts.googleapis.com/css?family=Permanent+Marker">
      <root>
        <mxCell id="0" />
        <mxCell id="1" parent="0" />
        <mxCell id="cNY1o4TIpA3qHSk4KKlS-2" value="&lt;b&gt;Passeggero&lt;/b&gt;" style="whiteSpace=wrap;html=1;align=center;fontSize=16;fontFamily=Georgia;" vertex="1" parent="1">
          <mxGeometry x="300" y="344" width="120" height="60" as="geometry" />
        </mxCell>
        <mxCell id="cNY1o4TIpA3qHSk4KKlS-3" value="&lt;b&gt;Prenota&lt;/b&gt;" style="shape=rhombus;perimeter=rhombusPerimeter;whiteSpace=wrap;html=1;align=center;fontSize=16;fontFamily=Georgia;" vertex="1" parent="1">
          <mxGeometry x="491" y="344" width="120" height="60" as="geometry" />
        </mxCell>
        <mxCell id="cNY1o4TIpA3qHSk4KKlS-4" value="&lt;b&gt;Volo&lt;/b&gt;" style="whiteSpace=wrap;html=1;align=center;fontSize=16;fontFamily=Georgia;" vertex="1" parent="1">
          <mxGeometry x="681" y="344" width="120" height="60" as="geometry" />
        </mxCell>
        <mxCell id="cNY1o4TIpA3qHSk4KKlS-6" value="" style="endArrow=none;html=1;rounded=0;fontSize=12;startSize=8;endSize=8;curved=1;exitX=1;exitY=0.5;exitDx=0;exitDy=0;entryX=0;entryY=0.5;entryDx=0;entryDy=0;fontFamily=Georgia;" edge="1" parent="1" source="cNY1o4TIpA3qHSk4KKlS-2" target="cNY1o4TIpA3qHSk4KKlS-3">
          <mxGeometry width="50" height="50" relative="1" as="geometry">
            <mxPoint x="525" y="389" as="sourcePoint" />
            <mxPoint x="575" y="339" as="targetPoint" />
          </mxGeometry>
        </mxCell>
        <mxCell id="cNY1o4TIpA3qHSk4KKlS-7" value="" style="endArrow=none;html=1;rounded=0;fontSize=12;startSize=8;endSize=8;curved=1;entryX=0;entryY=0.5;entryDx=0;entryDy=0;exitX=1;exitY=0.5;exitDx=0;exitDy=0;fontFamily=Georgia;" edge="1" parent="1" source="cNY1o4TIpA3qHSk4KKlS-3" target="cNY1o4TIpA3qHSk4KKlS-4">
          <mxGeometry width="50" height="50" relative="1" as="geometry">
            <mxPoint x="525" y="389" as="sourcePoint" />
            <mxPoint x="575" y="339" as="targetPoint" />
          </mxGeometry>
        </mxCell>
      </root>
    </mxGraphModel>
  </diagram>
</mxfile>
